<svg viewBox="0 0 320 692" xmlns="http://www.w3.org/2000/svg" font-family="Helvetica, Arial, sans-serif">
  <defs>
    <clipPath id="screen3"><rect x="8" y="8" width="304" height="676" rx="28"/></clipPath>
  </defs>
  <rect x="0" y="0" width="320" height="692" rx="36" fill="#1B1830"/>
  <g clip-path="url(#screen3)">
    <rect x="8" y="8" width="304" height="676" fill="#F4F3FE"/>
    <text x="160" y="200" text-anchor="middle" font-size="19" font-weight="700" fill="#26215C">Pair with parent</text>
    <text x="160" y="224" text-anchor="middle" font-size="13" fill="#7D7898">Enter this code on the parent phone</text>

    <!-- 4 digit boxes -->
    <g>
      <rect x="56" y="258" width="48" height="48" rx="14" fill="#FFFFFF"/>
      <text x="80" y="290" text-anchor="middle" font-size="26" font-weight="700" fill="#26215C">4</text>
      <rect x="116" y="258" width="48" height="48" rx="14" fill="#FFFFFF"/>
      <text x="140" y="290" text-anchor="middle" font-size="26" font-weight="700" fill="#26215C">7</text>
      <rect x="176" y="258" width="48" height="48" rx="14" fill="#FFFFFF"/>
      <text x="200" y="290" text-anchor="middle" font-size="26" font-weight="700" fill="#26215C">2</text>
      <rect x="236" y="258" width="48" height="48" rx="14" fill="#FFFFFF"/>
      <text x="260" y="290" text-anchor="middle" font-size="26" font-weight="700" fill="#26215C">9</text>
    </g>

    <rect x="110" y="332" width="100" height="28" rx="14" fill="#FAEEDA"/>
    <text x="160" y="350" text-anchor="middle" font-size="12" font-weight="600" fill="#854F0B">Waiting for parent…</text>

    <text x="160" y="392" text-anchor="middle" font-size="11" fill="#7D7898">Keep this phone near baby</text>

    <rect x="32" y="606" width="256" height="50" rx="14" fill="#534AB7"/>
    <text x="160" y="637" text-anchor="middle" font-size="15" font-weight="600" fill="#FFFFFF">Go to monitor</text>
  </g>
</svg>
