<svg viewBox="0 0 320 692" xmlns="http://www.w3.org/2000/svg" font-family="Helvetica, Arial, sans-serif">
  <defs>
    <clipPath id="screen5"><rect x="8" y="8" width="304" height="676" rx="28"/></clipPath>
  </defs>
  <rect x="0" y="0" width="320" height="692" rx="36" fill="#1B1830"/>
  <g clip-path="url(#screen5)">
    <!-- full bleed video bg -->
    <rect x="8" y="8" width="304" height="676" fill="#0C0B16"/>
    <!-- fake camera frame silhouette -->
    <circle cx="160" cy="300" r="62" fill="#16142B"/>
    <circle cx="160" cy="280" r="26" fill="#26215C"/>
    <path d="M118 350c0-26 19-44 42-44s42 18 42 44" fill="#26215C"/>

    <!-- top bar -->
    <rect x="8" y="8" width="304" height="48" fill="#0C0B16" opacity="0.0"/>
    <rect x="20" y="22" width="44" height="22" rx="11" fill="#2EE24B4A" fill-opacity="0.18"/>
    <circle cx="30" cy="33" r="4" fill="#FF8B8A"/>
    <text x="40" y="37" font-size="10" font-weight="700" fill="#FF8B8A">LIVE</text>
    <text x="92" y="37" font-size="11" fill="#CFCBF0">82% · 03:24</text>
    <circle cx="266" cy="33" r="14" fill="none" stroke="#CFCBF0" stroke-width="1.6"/>
    <circle cx="266" cy="33" r="3" fill="#CFCBF0"/>
    <circle cx="296" cy="33" r="14" fill="#3A1414"/>
    <path d="M291 28l10 10M301 28l-10 10" stroke="#FF6B6B" stroke-width="2" stroke-linecap="round"/>

    <!-- bottom panel -->
    <rect x="8" y="486" width="304" height="198" fill="#070714" fill-opacity="0.93"/>
    <text x="28" y="512" font-size="9" font-weight="600" letter-spacing="2" fill="#FFFFFF" fill-opacity="0.55">BABY PHONE</text>

    <!-- row 1: cam / mic / torch / flip -->
    <g font-size="9" fill="#FFFFFF">
      <circle cx="48" cy="540" r="20" fill="#33FFFFFF" fill-opacity="0.2"/>
      <rect x="40" y="532" width="16" height="11" rx="2" fill="#FFFFFF"/>
      <text x="48" y="572" text-anchor="middle">Cam ON</text>

      <circle cx="118" cy="540" r="20" fill="#33FFFFFF" fill-opacity="0.2"/>
      <rect x="113" y="530" width="10" height="15" rx="5" fill="#FFFFFF"/>
      <text x="118" y="572" text-anchor="middle">Mic ON</text>

      <circle cx="188" cy="540" r="20" fill="#33FFFFFF" fill-opacity="0.2"/>
      <path d="M184 530l8 0 -3 7 4 0 -9 11 2 -9 -4 0z" fill="#FFFFFF"/>
      <text x="188" y="572" text-anchor="middle">Torch</text>

      <circle cx="258" cy="540" r="20" fill="#33FFFFFF" fill-opacity="0.2"/>
      <path d="M250 540a8 8 0 0 1 16 0M266 540a8 8 0 0 1 -16 0" stroke="#FFFFFF" stroke-width="1.6" fill="none"/>
      <text x="258" y="572" text-anchor="middle">Flip Cam</text>
    </g>

    <rect x="24" y="586" width="272" height="1" fill="#FFFFFF" fill-opacity="0.2"/>

    <!-- row 2: talk / night / lullaby / snapshot -->
    <g font-size="9" fill="#FFFFFF">
      <circle cx="48" cy="624" r="22" fill="#534AB7"/>
      <path d="M48 615a6 6 0 0 1 6 6v4a6 6 0 0 1 -12 0v-4a6 6 0 0 1 6 -6z" fill="#FFFFFF"/>
      <text x="48" y="660" text-anchor="middle">Talk</text>

      <circle cx="118" cy="624" r="20" fill="#33FFFFFF" fill-opacity="0.2"/>
      <path d="M126 614a12 12 0 1 0 0 20 14 14 0 0 1 0 -20z" fill="#CFCBF0"/>
      <text x="118" y="658" text-anchor="middle">Night</text>

      <circle cx="188" cy="624" r="20" fill="#33FFFFFF" fill-opacity="0.2"/>
      <circle cx="184" cy="630" r="3" fill="#FFFFFF"/>
      <circle cx="194" cy="624" r="3" fill="#FFFFFF"/>
      <path d="M187 630v-14l10 -3v14" stroke="#FFFFFF" stroke-width="1.6" fill="none"/>
      <text x="188" y="658" text-anchor="middle">Lullaby</text>

      <circle cx="258" cy="624" r="20" fill="#33FFFFFF" fill-opacity="0.2"/>
      <rect x="248" y="617" width="20" height="14" rx="3" fill="#FFFFFF"/>
      <circle cx="258" cy="624" r="4" fill="#33FFFFFF"/>
      <text x="258" y="658" text-anchor="middle">Snapshot</text>
    </g>
  </g>
</svg>
